<svg xmlns="http://www.w3.org/2000/svg" xmlns:xlink="http://www.w3.org/1999/xlink" style="margin:auto;background:#91acd3;display:block;z-index:1;position:relative" width="1366" height="615" preserveAspectRatio="xMidYMid" viewBox="0 0 1366 615">
<g transform="translate(683,307.5) scale(1,1) translate(-683,-307.5)"><path id="path0" d="M 162.0255634436276 607.864353958026
c 0 32.1591395390128 -7.86872563188611 9.237199654822826 -17.105925286708935 9.237199654822826
S 127.81371287020973 640.0234934970388 127.81371287020973 607.864353958026
s 7.86872563188611 -9.237199654822826 17.105925286708935 -9.237199654822826
S 162.0255634436276 575.7052144190131 162.0255634436276 607.864353958026
z" fill="none" stroke="none"></path>
<circle cx="0" cy="0" r="2.4569042006149315" fill="#3b4368">
  <animateMotion begin="-5.831830554538219s" dur="9.81s" repeatCount="indefinite">
    <mpath xlink:href="#path0"></mpath>
  </animateMotion>
</circle><path id="path1" d="M 64.66630576076342 305.05946915557365
c 0 25.583502916716256 -6.2597932668561045 7.348452965439775 -13.60824623229588 7.348452965439775
S 37.449813296171655 330.6429720722899 37.449813296171655 305.05946915557365
s 6.2597932668561045 -7.348452965439775 13.60824623229588 -7.348452965439775
S 64.66630576076342 279.4759662388574 64.66630576076342 305.05946915557365
z" fill="none" stroke="none"></path>
<circle cx="0" cy="0" r="3.901705853190645" fill="#689cc5">
  <animateMotion begin="-4.2226900525607425s" dur="9.81s" repeatCount="indefinite">
    <mpath xlink:href="#path1"></mpath>
  </animateMotion>
</circle><path id="path2" d="M 1190.349765652759 377.1631887265258
c 0 36.179199356892525 -8.852357289452426 10.391897687618066 -19.24425497707049 10.391897687618066
S 1151.861255698618 413.3423880834183 1151.861255698618 377.1631887265258
s 8.852357289452426 -10.391897687618066 19.24425497707049 -10.391897687618066
S 1190.349765652759 340.98398936963326 1190.349765652759 377.1631887265258
z" fill="none" stroke="none"></path>
<circle cx="0" cy="0" r="3.033636631616278" fill="#689cc5">
  <animateMotion begin="-4.2139524648499265s" dur="9.81s" repeatCount="indefinite">
    <mpath xlink:href="#path2"></mpath>
  </animateMotion>
</circle><path id="path3" d="M 962.682108701927 380.1213962536591
c 0 27.347054142481433 -6.691300481670988 7.855004913265944 -14.546305394936931 7.855004913265944
S 933.5894979120532 407.46845039614055 933.5894979120532 380.1213962536591
s 6.691300481670988 -7.855004913265944 14.546305394936931 -7.855004913265944
S 962.682108701927 352.77434211117765 962.682108701927 380.1213962536591
z" fill="none" stroke="none"></path>
<circle cx="0" cy="0" r="2.49879590846737" fill="#191d3a">
  <animateMotion begin="-0.8090173486850746s" dur="9.81s" repeatCount="indefinite">
    <mpath xlink:href="#path3"></mpath>
  </animateMotion>
</circle><path id="path4" d="M 725.1112031712266 340.5728506773025
c 0 30.947010245140593 -7.572140804662059 8.889034857646767 -16.461175662308825 8.889034857646767
S 692.1888518466089 371.51986092244306 692.1888518466089 340.5728506773025
s 7.572140804662059 -8.889034857646767 16.461175662308825 -8.889034857646767
S 725.1112031712266 309.6258404321619 725.1112031712266 340.5728506773025
z" fill="none" stroke="none"></path>
<circle cx="0" cy="0" r="3.1854103507483966" fill="#3b4368">
  <animateMotion begin="-0.9487367958156744s" dur="9.81s" repeatCount="indefinite">
    <mpath xlink:href="#path4"></mpath>
  </animateMotion>
</circle><path id="path5" d="M 1192.3178954005925 140.50475659959562
c 0 23.147187784327702 -5.663673606803585 6.648660321030297 -12.312333927833883 6.648660321030297
S 1167.6932275449249 163.65194438392334 1167.6932275449249 140.50475659959562
s 5.663673606803585 -6.648660321030297 12.312333927833883 -6.648660321030297
S 1192.3178954005925 117.35756881526792 1192.3178954005925 140.50475659959562
z" fill="none" stroke="none"></path>
<circle cx="0" cy="0" r="2.9997506997666448" fill="#93dbe9">
  <animateMotion begin="-3.4404519922802326s" dur="9.81s" repeatCount="indefinite">
    <mpath xlink:href="#path5"></mpath>
  </animateMotion>
</circle><path id="path6" d="M 966.9438355341666 160.8370145101737
c 0 19.822398077375357 -4.850161231698225 5.693667532863135 -10.543828764561361 5.693667532863135
S 945.856178005044 180.65941258754907 945.856178005044 160.8370145101737
s 4.850161231698225 -5.693667532863135 10.543828764561361 -5.693667532863135
S 966.9438355341666 141.01461643279833 966.9438355341666 160.8370145101737
z" fill="none" stroke="none"></path>
<circle cx="0" cy="0" r="3.1600600195213" fill="#b3b7e2">
  <animateMotion begin="-5.63259543660786s" dur="9.81s" repeatCount="indefinite">
    <mpath xlink:href="#path6"></mpath>
  </animateMotion>
</circle><path id="path7" d="M 118.60147735861445 408.73551764805933
c 0 19.00232906447947 -4.649506047691784 5.458115795116443 -10.107621842808229 5.458115795116443
S 98.38623367299799 427.7378467125388 98.38623367299799 408.73551764805933
s 4.649506047691784 -5.458115795116443 10.107621842808229 -5.458115795116443
S 118.60147735861445 389.7331885835799 118.60147735861445 408.73551764805933
z" fill="none" stroke="none"></path>
<circle cx="0" cy="0" r="2.5146804405187524" fill="#b3b7e2">
  <animateMotion begin="-3.975452546376946s" dur="9.81s" repeatCount="indefinite">
    <mpath xlink:href="#path7"></mpath>
  </animateMotion>
</circle><path id="path8" d="M 791.678689233663 246.8556213077043
c 0 28.611984132764373 -7.00080462822958 8.218335867921683 -15.219140496151262 8.218335867921683
S 761.2404082413606 275.4676054404687 761.2404082413606 246.8556213077043
s 7.00080462822958 -8.218335867921683 15.219140496151262 -8.218335867921683
S 791.678689233663 218.24363717493992 791.678689233663 246.8556213077043
z" fill="none" stroke="none"></path>
<circle cx="0" cy="0" r="3.6361330426146155" fill="#93dbe9">
  <animateMotion begin="-9.478278620813533s" dur="9.81s" repeatCount="indefinite">
    <mpath xlink:href="#path8"></mpath>
  </animateMotion>
</circle><path id="path9" d="M 1207.229073316941 256.5012006143417
c 0 27.12257859052613 -6.6363756125755415 7.790527893023463 -14.426903505599004 7.790527893023463
S 1178.3752663057428 283.62377920486784 1178.3752663057428 256.5012006143417
s 6.6363756125755415 -7.790527893023463 14.426903505599004 -7.790527893023463
S 1207.229073316941 229.37862202381558 1207.229073316941 256.5012006143417
z" fill="none" stroke="none"></path>
<circle cx="0" cy="0" r="2.0429816684113398" fill="#3b4368">
  <animateMotion begin="-0.0663168116815727s" dur="9.81s" repeatCount="indefinite">
    <mpath xlink:href="#path9"></mpath>
  </animateMotion>
</circle><path id="path10" d="M 1183.5414807626044 511.6321314008743
c 0 20.02952440548952 -4.900841077938925 5.753161265406565 -10.65400234334549 5.753161265406565
S 1162.2334760759136 531.6616558063638 1162.2334760759136 511.6321314008743
s 4.900841077938925 -5.753161265406565 10.65400234334549 -5.753161265406565
S 1183.5414807626044 491.6026069953848 1183.5414807626044 511.6321314008743
z" fill="none" stroke="none"></path>
<circle cx="0" cy="0" r="2.7501197880991715" fill="#191d3a">
  <animateMotion begin="-9.1392253594623s" dur="9.81s" repeatCount="indefinite">
    <mpath xlink:href="#path10"></mpath>
  </animateMotion>
</circle><path id="path11" d="M 731.6076020959159 460.1803117526193
c 0 32.85395817930461 -8.038734448127723 9.436775221715154 -17.47550966984288 9.436775221715154
S 696.6565827562303 493.03426993192386 696.6565827562303 460.1803117526193
s 8.038734448127723 -9.436775221715154 17.47550966984288 -9.436775221715154
S 731.6076020959159 427.3263535733147 731.6076020959159 460.1803117526193
z" fill="none" stroke="none"></path>
<circle cx="0" cy="0" r="3.01837831515101" fill="#b3b7e2">
  <animateMotion begin="-8.514268959741349s" dur="9.81s" repeatCount="indefinite">
    <mpath xlink:href="#path11"></mpath>
  </animateMotion>
</circle><path id="path12" d="M 226.57390082127034 204.05866973743318
c 0 18.836709517425586 -4.608982115965834 5.410544223090327 -10.019526339056162 5.410544223090327
S 206.534848143158 222.89537925485877 206.534848143158 204.05866973743318
s 4.608982115965834 -5.410544223090327 10.019526339056162 -5.410544223090327
S 226.57390082127034 185.2219602200076 226.57390082127034 204.05866973743318
z" fill="none" stroke="none"></path>
<circle cx="0" cy="0" r="3.8545627174209014" fill="#93dbe9">
  <animateMotion begin="-3.812054315084886s" dur="9.81s" repeatCount="indefinite">
    <mpath xlink:href="#path12"></mpath>
  </animateMotion>
</circle><path id="path13" d="M 989.9119724970905 431.773053389529
c 0 26.182080797481536 -6.406253812149736 7.52038490991491 -13.926638722064645 7.52038490991491
S 962.0586950529611 457.9551341870106 962.0586950529611 431.773053389529
s 6.406253812149736 -7.52038490991491 13.926638722064645 -7.52038490991491
S 989.9119724970905 405.5909725920475 989.9119724970905 431.773053389529
z" fill="none" stroke="none"></path>
<circle cx="0" cy="0" r="3.6655146133829213" fill="#b3b7e2">
  <animateMotion begin="-4.8220631058852526s" dur="9.81s" repeatCount="indefinite">
    <mpath xlink:href="#path13"></mpath>
  </animateMotion>
</circle><path id="path14" d="M 1020.5974475925761 78.33936989206681
c 0 21.71246622658083 -5.312624715014457 6.236559448060451 -11.549184163074909 6.236559448060451
S 997.4990792664264 100.05183611864764 997.4990792664264 78.33936989206681
s 5.312624715014457 -6.236559448060451 11.549184163074909 -6.236559448060451
S 1020.5974475925761 56.62690366548598 1020.5974475925761 78.33936989206681
z" fill="none" stroke="none"></path>
<circle cx="0" cy="0" r="2.650595384853972" fill="#93dbe9">
  <animateMotion begin="-8.288527711568229s" dur="9.81s" repeatCount="indefinite">
    <mpath xlink:href="#path14"></mpath>
  </animateMotion>
</circle><path id="path15" d="M 1264.780288107533 295.83689494479137
c 0 28.659070046810275 -7.01232564975145 8.231860545360398 -15.244186195111848 8.231860545360398
S 1234.2919157173094 324.4959649916016 1234.2919157173094 295.83689494479137
s 7.01232564975145 -8.231860545360398 15.244186195111848 -8.231860545360398
S 1264.780288107533 267.1778248979811 1264.780288107533 295.83689494479137
z" fill="none" stroke="none"></path>
<circle cx="0" cy="0" r="3.889946815075006" fill="#3b4368">
  <animateMotion begin="-1.5081991254837621s" dur="9.81s" repeatCount="indefinite">
    <mpath xlink:href="#path15"></mpath>
  </animateMotion>
</circle><path id="path16" d="M 464.05003354745435 524.318260443631
c 0 23.10860405760804 -5.654232907712605 6.637577761227841 -12.291810668940446 6.637577761227841
S 439.46641220957343 547.426864501239 439.46641220957343 524.318260443631
s 5.654232907712605 -6.637577761227841 12.291810668940446 -6.637577761227841
S 464.05003354745435 501.2096563860229 464.05003354745435 524.318260443631
z" fill="none" stroke="none"></path>
<circle cx="0" cy="0" r="2.3857666939045292" fill="#5e6fa3">
  <animateMotion begin="-6.65761135394741s" dur="9.81s" repeatCount="indefinite">
    <mpath xlink:href="#path16"></mpath>
  </animateMotion>
</circle><path id="path17" d="M 695.5784804816635 272.03109546896866
c 0 19.381584869523227 -4.742302680840789 5.567050973160927 -10.309353654001717 5.567050973160927
S 674.9597731736601 291.4126803384919 674.9597731736601 272.03109546896866
s 4.742302680840789 -5.567050973160927 10.309353654001717 -5.567050973160927
S 695.5784804816635 252.64951059944542 695.5784804816635 272.03109546896866
z" fill="none" stroke="none"></path>
<circle cx="0" cy="0" r="3.279432156573975" fill="#b3b7e2">
  <animateMotion begin="-1.2010951114940922s" dur="9.81s" repeatCount="indefinite">
    <mpath xlink:href="#path17"></mpath>
  </animateMotion>
</circle><path id="path18" d="M 906.1720079875636 113.50632554884277
c 0 25.60131671505129 -6.2641519621934 7.353569694748774 -13.617721656942175 7.353569694748774
S 878.9365646736792 139.10764226389406 878.9365646736792 113.50632554884277
s 6.2641519621934 -7.353569694748774 13.617721656942175 -7.353569694748774
S 906.1720079875636 87.90500883379147 906.1720079875636 113.50632554884277
z" fill="none" stroke="none"></path>
<circle cx="0" cy="0" r="3.5701910681436866" fill="#689cc5">
  <animateMotion begin="-3.4472394292079374s" dur="9.81s" repeatCount="indefinite">
    <mpath xlink:href="#path18"></mpath>
  </animateMotion>
</circle><path id="path19" d="M 1124.4687395107062 84.01412585198669
c 0 20.28144755506533 -4.962481848579815 5.825522170071957 -10.78800401865177 5.825522170071957
S 1102.8927314734028 104.29557340705202 1102.8927314734028 84.01412585198669
s 4.962481848579815 -5.825522170071957 10.78800401865177 -5.825522170071957
S 1124.4687395107062 63.732678296921364 1124.4687395107062 84.01412585198669
z" fill="none" stroke="none"></path>
<circle cx="0" cy="0" r="2.5771537169164693" fill="#93dbe9">
  <animateMotion begin="-5.934641594696458s" dur="9.81s" repeatCount="indefinite">
    <mpath xlink:href="#path19"></mpath>
  </animateMotion>
</circle><path id="path20" d="M 639.180567963885 388.67912106222417
c 0 34.37769185616043 -8.411562900975424 9.87444340549289 -18.286006306468316 9.87444340549289
S 602.6085553509484 423.0568129183846 602.6085553509484 388.67912106222417
s 8.411562900975424 -9.87444340549289 18.286006306468316 -9.87444340549289
S 639.180567963885 354.30142920606374 639.180567963885 388.67912106222417
z" fill="none" stroke="none"></path>
<circle cx="0" cy="0" r="3.431956279854816" fill="#3b4368">
  <animateMotion begin="-1.1554303211000319s" dur="9.81s" repeatCount="indefinite">
    <mpath xlink:href="#path20"></mpath>
  </animateMotion>
</circle><path id="path21" d="M 161.03585366926018 24.589783068575727
c 0 34.938419154145805 -8.548762133461207 10.035503374063156 -18.584265507524364 10.035503374063156
S 123.86732265421146 59.52820222272153 123.86732265421146 24.589783068575727
s 8.548762133461207 -10.035503374063156 18.584265507524364 -10.035503374063156
S 161.03585366926018 -10.348636085570078 161.03585366926018 24.589783068575727
z" fill="none" stroke="none"></path>
<circle cx="0" cy="0" r="2.143406865246622" fill="#3b4368">
  <animateMotion begin="-4.8026353733143345s" dur="9.81s" repeatCount="indefinite">
    <mpath xlink:href="#path21"></mpath>
  </animateMotion>
</circle><path id="path22" d="M 1034.4555454609076 309.4219911631517
c 0 30.355894152112192 -7.427506015942344 8.71924619262797 -16.146752208570312 8.71924619262797
S 1002.162041043767 339.77788531526386 1002.162041043767 309.4219911631517
s 7.427506015942344 -8.71924619262797 16.146752208570312 -8.71924619262797
S 1034.4555454609076 279.0660970110395 1034.4555454609076 309.4219911631517
z" fill="none" stroke="none"></path>
<circle cx="0" cy="0" r="3.0349884585906373" fill="#b3b7e2">
  <animateMotion begin="-1.4004048405587373s" dur="9.81s" repeatCount="indefinite">
    <mpath xlink:href="#path22"></mpath>
  </animateMotion>
</circle><path id="path23" d="M 22.644581205777193 563.3261945582051
c 0 24.6420027940895 -6.029426215575089 7.078022079153367 -13.107448294728457 7.078022079153367
S -3.57031538367972 587.9681973522946 -3.57031538367972 563.3261945582051
s 6.029426215575089 -7.078022079153367 13.107448294728457 -7.078022079153367
S 22.644581205777193 538.6841917641156 22.644581205777193 563.3261945582051
z" fill="none" stroke="none"></path>
<circle cx="0" cy="0" r="2.3017365770733536" fill="#b3b7e2">
  <animateMotion begin="-2.2594092391164287s" dur="9.81s" repeatCount="indefinite">
    <mpath xlink:href="#path23"></mpath>
  </animateMotion>
</circle><path id="path24" d="M 1080.3524402826679 406.8127483247972
c 0 19.727817853318832 -4.827019261982267 5.666500872761792 -10.49352013474406 5.666500872761792
S 1059.3654000131796 426.540566178116 1059.3654000131796 406.8127483247972
s 4.827019261982267 -5.666500872761792 10.49352013474406 -5.666500872761792
S 1080.3524402826679 387.0849304714784 1080.3524402826679 406.8127483247972
z" fill="none" stroke="none"></path>
<circle cx="0" cy="0" r="3.071201719216192" fill="#93dbe9">
  <animateMotion begin="-9.38695743420637s" dur="9.81s" repeatCount="indefinite">
    <mpath xlink:href="#path24"></mpath>
  </animateMotion>
</circle><path id="path25" d="M 526.6420044269333 176.53922487700825
c 0 24.37044446760363 -5.962981093137057 7.000021283247851 -12.963002376384908 7.000021283247851
S 500.7159996741635 200.90966934461187 500.7159996741635 176.53922487700825
s 5.962981093137057 -7.000021283247851 12.963002376384908 -7.000021283247851
S 526.6420044269333 152.16878040940463 526.6420044269333 176.53922487700825
z" fill="none" stroke="none"></path>
<circle cx="0" cy="0" r="3.7119681212551145" fill="#191d3a">
  <animateMotion begin="-3.745707662292723s" dur="9.81s" repeatCount="indefinite">
    <mpath xlink:href="#path25"></mpath>
  </animateMotion>
</circle><path id="path26" d="M 1110.0255048284198 429.2394626560949
c 0 36.83210160917775 -9.012109968203065 10.579433440934034 -19.5915434091371 10.579433440934034
S 1070.8424180101456 466.0715642652726 1070.8424180101456 429.2394626560949
s 9.012109968203065 -10.579433440934034 19.5915434091371 -10.579433440934034
S 1110.0255048284198 392.4073610469171 1110.0255048284198 429.2394626560949
z" fill="none" stroke="none"></path>
<circle cx="0" cy="0" r="2.758788878462358" fill="#689cc5">
  <animateMotion begin="-7.70593969586089s" dur="9.81s" repeatCount="indefinite">
    <mpath xlink:href="#path26"></mpath>
  </animateMotion>
</circle><path id="path27" d="M 226.47214342816113 48.959136415722256
c 0 32.502123325039406 -7.952647196552195 9.335716274213448 -17.288363470765642 9.335716274213448
S 191.89541648662987 81.46125974076166 191.89541648662987 48.959136415722256
s 7.952647196552195 -9.335716274213448 17.288363470765642 -9.335716274213448
S 226.47214342816113 16.45701309068285 226.47214342816113 48.959136415722256
z" fill="none" stroke="none"></path>
<circle cx="0" cy="0" r="3.9084367447722705" fill="#5e6fa3">
  <animateMotion begin="-5.2047825182540475s" dur="9.81s" repeatCount="indefinite">
    <mpath xlink:href="#path27"></mpath>
  </animateMotion>
</circle><path id="path28" d="M 938.5976172521049 601.955533701119
c 0 26.98260652420112 -6.602127128261976 7.7503231505684065 -14.352450278830382 7.7503231505684065
S 909.8927166944442 628.9381402253201 909.8927166944442 601.955533701119
s 6.602127128261976 -7.7503231505684065 14.352450278830382 -7.7503231505684065
S 938.5976172521049 574.9729271769178 938.5976172521049 601.955533701119
z" fill="none" stroke="none"></path>
<circle cx="0" cy="0" r="2.11103084415258" fill="#93dbe9">
  <animateMotion begin="-1.7591588905694326s" dur="9.81s" repeatCount="indefinite">
    <mpath xlink:href="#path28"></mpath>
  </animateMotion>
</circle><path id="path29" d="M 682.6419736866917 275.32452084862325
c 0 30.606379838290728 -7.488795066815816 8.791194208870742 -16.279989275686557 8.791194208870742
S 650.0819951353185 305.93090068691396 650.0819951353185 275.32452084862325
s 7.488795066815816 -8.791194208870742 16.279989275686557 -8.791194208870742
S 682.6419736866917 244.71814101033252 682.6419736866917 275.32452084862325
z" fill="none" stroke="none"></path>
<circle cx="0" cy="0" r="3.925984125123998" fill="#3b4368">
  <animateMotion begin="-7.310134166843741s" dur="9.81s" repeatCount="indefinite">
    <mpath xlink:href="#path29"></mpath>
  </animateMotion>
</circle><path id="path30" d="M 676.9890985211144 317.08758426744276
c 0 36.196106306579736 -8.856494096290787 10.396753939123968 -19.253248035414753 10.396753939123968
S 638.4826024502848 353.2836905740225 638.4826024502848 317.08758426744276
s 8.856494096290787 -10.396753939123968 19.253248035414753 -10.396753939123968
S 676.9890985211144 280.891477960863 676.9890985211144 317.08758426744276
z" fill="none" stroke="none"></path>
<circle cx="0" cy="0" r="3.8713726916748357" fill="#b3b7e2">
  <animateMotion begin="-6.056727954329717s" dur="9.81s" repeatCount="indefinite">
    <mpath xlink:href="#path30"></mpath>
  </animateMotion>
</circle><path id="path31" d="M 379.41007114492504 275.1204646286777
c 0 34.35532975708449 -8.406091323541949 9.868020249375332 -18.27411157291728 9.868020249375332
S 342.8618479990905 309.47579438576224 342.8618479990905 275.1204646286777
s 8.406091323541949 -9.868020249375332 18.27411157291728 -9.868020249375332
S 379.41007114492504 240.76513487159323 379.41007114492504 275.1204646286777
z" fill="none" stroke="none"></path>
<circle cx="0" cy="0" r="2.157727066169607" fill="#d9dbee">
  <animateMotion begin="-0.18931529091705362s" dur="9.81s" repeatCount="indefinite">
    <mpath xlink:href="#path31"></mpath>
  </animateMotion>
</circle><path id="path32" d="M 1260.6126823198042 163.96622308703868
c 0 32.382159992329306 -7.923294466208233 9.30125872120097 -17.224553187409203 9.30125872120097
S 1226.163575944986 196.34838307936798 1226.163575944986 163.96622308703868
s 7.923294466208233 -9.30125872120097 17.224553187409203 -9.30125872120097
S 1260.6126823198042 131.5840630947094 1260.6126823198042 163.96622308703868
z" fill="none" stroke="none"></path>
<circle cx="0" cy="0" r="3.0426784460561813" fill="#93dbe9">
  <animateMotion begin="-2.1113688528314114s" dur="9.81s" repeatCount="indefinite">
    <mpath xlink:href="#path32"></mpath>
  </animateMotion>
</circle><path id="path33" d="M 719.4975138364721 327.9657273812234
c 0 33.62766108561325 -8.22804473371388 9.659009035229339 -17.88705376894322 9.659009035229339
S 683.7234062985856 361.59338846683664 683.7234062985856 327.9657273812234
s 8.22804473371388 -9.659009035229339 17.88705376894322 -9.659009035229339
S 719.4975138364721 294.3380662956102 719.4975138364721 327.9657273812234
z" fill="none" stroke="none"></path>
<circle cx="0" cy="0" r="3.6540632635165977" fill="#3b4368">
  <animateMotion begin="-5.987669207451049s" dur="9.81s" repeatCount="indefinite">
    <mpath xlink:href="#path33"></mpath>
  </animateMotion>
</circle><path id="path34" d="M 646.6156854685731 75.5850258099259
c 0 25.78667756746559 -6.309506213316047 7.40681164171884 -13.716317855034887 7.40681164171884
S 619.1830497585034 101.37170337739148 619.1830497585034 75.5850258099259
s 6.309506213316047 -7.40681164171884 13.716317855034887 -7.40681164171884
S 646.6156854685731 49.79834824246031 646.6156854685731 75.5850258099259
z" fill="none" stroke="none"></path>
<circle cx="0" cy="0" r="2.9879343315296567" fill="#93dbe9">
  <animateMotion begin="-8.267587334607814s" dur="9.81s" repeatCount="indefinite">
    <mpath xlink:href="#path34"></mpath>
  </animateMotion>
</circle><path id="path35" d="M 742.0842204239069 497.568266372282
c 0 19.231354089915904 -4.7055440858304864 5.523899579018399 -10.229443664848885 5.523899579018399
S 721.6253330942092 516.7996204621979 721.6253330942092 497.568266372282
s 4.7055440858304864 -5.523899579018399 10.229443664848885 -5.523899579018399
S 742.0842204239069 478.3369122823661 742.0842204239069 497.568266372282
z" fill="none" stroke="none"></path>
<circle cx="0" cy="0" r="3.5836076856469252" fill="#689cc5">
  <animateMotion begin="-2.026950132731258s" dur="9.81s" repeatCount="indefinite">
    <mpath xlink:href="#path35"></mpath>
  </animateMotion>
</circle><path id="path36" d="M 684.9606520078449 505.02493490358574
c 0 21.523105128576102 -5.26629168039628 6.182168494378242 -11.448460174774521 6.182168494378242
S 662.063731658296 526.5480400321618 662.063731658296 505.02493490358574
s 5.26629168039628 -6.182168494378242 11.448460174774521 -6.182168494378242
S 684.9606520078449 483.50182977500964 684.9606520078449 505.02493490358574
z" fill="none" stroke="none"></path>
<circle cx="0" cy="0" r="2.4199417755775716" fill="#b3b7e2">
  <animateMotion begin="-5.220546479964473s" dur="9.81s" repeatCount="indefinite">
    <mpath xlink:href="#path36"></mpath>
  </animateMotion>
</circle><path id="path37" d="M 935.0102288968595 539.8568526383093
c 0 25.943013143771797 -6.347758535178205 7.451716541296155 -13.799475076474359 7.451716541296155
S 907.4112787439109 565.7998657820812 907.4112787439109 539.8568526383093
s 6.347758535178205 -7.451716541296155 13.799475076474359 -7.451716541296155
S 935.0102288968595 513.9138394945375 935.0102288968595 539.8568526383093
z" fill="none" stroke="none"></path>
<circle cx="0" cy="0" r="2.6874610562682837" fill="#d9dbee">
  <animateMotion begin="-5.97416590559053s" dur="9.81s" repeatCount="indefinite">
    <mpath xlink:href="#path37"></mpath>
  </animateMotion>
</circle><path id="path38" d="M 470.03679473095 535.3639818264325
c 0 20.081005200139266 -4.9134374425872664 5.767948302167661 -10.681385744754927 5.767948302167661
S 448.6740232414401 555.4449870265718 448.6740232414401 535.3639818264325
s 4.9134374425872664 -5.767948302167661 10.681385744754927 -5.767948302167661
S 470.03679473095 515.2829766262931 470.03679473095 535.3639818264325
z" fill="none" stroke="none"></path>
<circle cx="0" cy="0" r="2.067087818237738" fill="#5e6fa3">
  <animateMotion begin="-4.824841464759208s" dur="9.81s" repeatCount="indefinite">
    <mpath xlink:href="#path38"></mpath>
  </animateMotion>
</circle><path id="path39" d="M 446.55796876671815 257.3982905236641
c 0 22.73207755578307 -5.562104082797985 6.529426531980245 -12.091530614778229 6.529426531980245
S 422.37490753716173 280.1303680794472 422.37490753716173 257.3982905236641
s 5.562104082797985 -6.529426531980245 12.091530614778229 -6.529426531980245
S 446.55796876671815 234.66621296788105 446.55796876671815 257.3982905236641
z" fill="none" stroke="none"></path>
<circle cx="0" cy="0" r="3.164464875807619" fill="#191d3a">
  <animateMotion begin="-8.21239399617102s" dur="9.81s" repeatCount="indefinite">
    <mpath xlink:href="#path39"></mpath>
  </animateMotion>
</circle><path id="path40" d="M 924.7407080071437 285.1729638207901
c 0 21.884262816065217 -5.354660050739361 6.285905276954902 -11.640565327694263 6.285905276954902
S 901.4595773517551 307.05722663685526 901.4595773517551 285.1729638207901
s 5.354660050739361 -6.285905276954902 11.640565327694263 -6.285905276954902
S 924.7407080071437 263.2887010047249 924.7407080071437 285.1729638207901
z" fill="none" stroke="none"></path>
<circle cx="0" cy="0" r="3.913091481853389" fill="#3b4368">
  <animateMotion begin="-4.2247373288966825s" dur="9.81s" repeatCount="indefinite">
    <mpath xlink:href="#path40"></mpath>
  </animateMotion>
</circle><path id="path41" d="M 683.8392056543045 153.36433352789442
c 0 19.427226251190156 -4.753470252950782 5.580160731724832 -10.333630984675615 5.580160731724832
S 663.1719436849531 172.79155977908457 663.1719436849531 153.36433352789442
s 4.753470252950782 -5.580160731724832 10.333630984675615 -5.580160731724832
S 683.8392056543045 133.93710727670427 683.8392056543045 153.36433352789442
z" fill="none" stroke="none"></path>
<circle cx="0" cy="0" r="3.1810087191885117" fill="#d9dbee">
  <animateMotion begin="-2.8010671742135616s" dur="9.81s" repeatCount="indefinite">
    <mpath xlink:href="#path41"></mpath>
  </animateMotion>
</circle><path id="path42" d="M 133.80538483930246 464.5042364337095
c 0 21.792342212619875 -5.3321688392580535 6.259502550433369 -11.591671389691422 6.259502550433369
S 110.62204205991961 486.29657864632935 110.62204205991961 464.5042364337095
s 5.3321688392580535 -6.259502550433369 11.591671389691422 -6.259502550433369
S 133.80538483930246 442.7118942210896 133.80538483930246 464.5042364337095
z" fill="none" stroke="none"></path>
<circle cx="0" cy="0" r="2.0922252449470524" fill="#689cc5">
  <animateMotion begin="-3.9472532026130613s" dur="9.81s" repeatCount="indefinite">
    <mpath xlink:href="#path42"></mpath>
  </animateMotion>
</circle><path id="path43" d="M 1358.5184026042991 483.73276257202076
c 0 33.767295957722496 -8.26221071305976 9.699116924026676 -17.961327637086434 9.699116924026676
S 1322.5957473301262 517.5000585297432 1322.5957473301262 483.73276257202076
s 8.26221071305976 -9.699116924026676 17.961327637086434 -9.699116924026676
S 1358.5184026042991 449.9654666142983 1358.5184026042991 483.73276257202076
z" fill="none" stroke="none"></path>
<circle cx="0" cy="0" r="3.7606781300759544" fill="#5e6fa3">
  <animateMotion begin="-6.882003989887851s" dur="9.81s" repeatCount="indefinite">
    <mpath xlink:href="#path43"></mpath>
  </animateMotion>
</circle></g>
</svg>